<?xml version="1.0" encoding="utf-8"?>
<!DOCTYPE svg PUBLIC "-//W3C//DTD SVG 1.1//EN" "http://www.w3.org/Graphics/SVG/1.1/DTD/svg11.dtd">
<svg version="1.1" xmlns="http://www.w3.org/2000/svg" xmlns:xlink="http://www.w3.org/1999/xlink" x="0px" y="0px" viewBox="0 0 1000 1000" enable-background="new 0 0 1000 1000" xml:space="preserve">
<g><path d="M984.7,27.6c-1.5-2.4-3.3-4.8-5.4-6.9c-2.3-2.3-4.8-4.2-7.5-5.8c-5-3.2-10.7-5-16.8-5H651.7c-19.3,0-35,18.2-35,40.7c0,22.5,15.7,40.7,35,40.7h205.1L482.6,465.5c-14.3,14.3-14.3,37.5,0,51.9c14.3,14.3,37.5,14.3,51.9,0l374.7-374.7v205.7c0,19.3,18.1,35,40.4,35c22.3,0,40.4-15.7,40.4-35V45C990,38.7,988.1,32.7,984.7,27.6z M949.6,500c-22.3,0-40.4,15.7-40.4,35v374.2H92V91.3h373c19.3,0,35-18.2,35-40.7c0-22.5-15.7-40.7-35-40.7H45c-9.5,0-18.1,4.4-24.4,11.5C14,27.7,10,36,10,45v910c0,8.8,3.8,16.8,10.1,23c6.3,7.4,15.2,12,24.9,12h910c9.3,0,17.7-4.2,24-11c6.8-6.3,11-14.7,11-24V535C990,515.7,971.9,500,949.6,500z"/></g>
</svg>